<?xml version="1.0" encoding="UTF-8"?>
<svg id="Layer_1" xmlns="http://www.w3.org/2000/svg" version="1.1" viewBox="0 0 43.2 48.5">
  <!-- Generator: Adobe Illustrator 30.0.0, SVG Export Plug-In . SVG Version: 2.1.1 Build 123)  -->
  <defs>
    <style>
      .st0 {
        fill: #231f20;
      }

      .st1 {
        fill: #fff;
      }
    </style>
  </defs>
  <path class="st0" d="M42.9,34.6V13.9c0-1.2-.6-2.3-1.6-2.9L23.3.6c-1-.6-2.3-.6-3.3,0L2,11c-1,.6-1.6,1.7-1.6,2.9v20.7c0,1.2.6,2.3,1.6,2.9l18,10.4c1,.6,2.3.6,3.3,0l18-10.4c1-.6,1.6-1.7,1.6-2.9Z"/>
  <path class="st1" d="M40.3,15.6c0-1.7-1.4-3.1-3.1-3.1s-1.4.3-2,.7l-13.1-7.6c-.3-.2-.7-.2-1.1,0L5.1,14.8c-.3.2-.5.5-.5.9v18.4c0,.4.2.7.5.9l15.9,9.2c.2,0,.3.1.5.1s.4,0,.5-.1l15.9-9.2c.3-.2.5-.5.5-.9v-15.7c1-.5,1.7-1.6,1.7-2.8ZM26.9,28.4l2.5-3.4c.3-.4.3-.9,0-1.2l-6.8-9.2v-6.4l11.5,6.7c0,.2,0,.4,0,.6,0,1.5,1,2.7,2.3,3v14.4l-9.6-4.5ZM19.6,26.8c.5.4,1.2.7,2,.7,1.7,0,3.1-1.4,3.1-3.1s-1.4-3.1-3.1-3.1-3.1,1.4-3.1,3.1,0,.4,0,.6l-1.5.9-1.2-1.6,5.7-7.7,5.7,7.7-5.7,7.7-3.3-4.5,1.4-.8ZM20.5,8.3v6.4l-6.8,9.2c-.3.4-.3.9,0,1.2l1.5,2-8.5,5.2v-15.9l13.8-8ZM21.5,42.1l-13.9-8,8.8-5.3,4.3,5.8c.2.3.5.4.8.4s.6-.2.8-.4l3.2-4.4,9.2,4.3-13.2,7.6Z"/>
</svg>