<?xml version="1.0" encoding="UTF-8"?>
<svg id="Layer_1" xmlns="http://www.w3.org/2000/svg" version="1.1" viewBox="0 0 595.3 841.9">
  <!-- Generator: Adobe Illustrator 30.0.0, SVG Export Plug-In . SVG Version: 2.1.1 Build 123)  -->
  <defs>
    <style>
      .st0 {
        fill: #fff;
      }
    </style>
  </defs>
  <path class="st0" d="M427.7,492.6c0-11.4-9.2-20.6-20.6-20.6s-9.6,1.8-13.1,4.8l-86.9-50.2c-2.2-1.2-4.8-1.2-7,0l-105.6,61c-2.2,1.3-3.5,3.6-3.5,6.1v121.9c0,2.5,1.3,4.8,3.5,6.1l105.6,61c1.1.6,2.3.9,3.5.9s2.4-.3,3.5-.9l105.6-61c2.2-1.3,3.5-3.6,3.5-6.1v-104.4c6.8-3.3,11.6-10.4,11.6-18.5ZM338.7,578l16.6-22.4c1.8-2.4,1.8-5.7,0-8.1l-45-60.7v-42.2l76.6,44.2c-.2,1.2-.4,2.5-.4,3.7,0,9.6,6.6,17.7,15.6,19.9v95.4l-63.4-29.8ZM290.5,567.4c3.6,2.9,8.1,4.7,13.1,4.7,11.4,0,20.6-9.2,20.6-20.6s-9.2-20.6-20.6-20.6-20.6,9.2-20.6,20.6.2,2.9.4,4.3l-10.1,6.1-7.7-10.4,37.9-51.1,37.9,51.1-37.9,51.1-22.1-29.8,9-5.4ZM296.8,444.6v42.2l-45,60.7c-1.8,2.4-1.8,5.7,0,8.1l9.9,13.4-56.7,34.3v-105.7l91.8-53ZM303.6,668.3l-92-53.1,58.3-35.3,28.3,38.2c1.3,1.7,3.3,2.7,5.5,2.7s4.2-1,5.5-2.7l21.5-29,60.7,28.6-87.7,50.6Z"/>
</svg>